<svg width="32" height="32" viewBox="0 0 32 32" fill="none" xmlns="http://www.w3.org/2000/svg">
<path fill-rule="evenodd" clip-rule="evenodd" d="M13.606 16.9798L8.3588 15.2307C6.00559 14.4463 4.82898 14.0541 4.82898 13.3333C4.82898 12.6126 6.00559 12.2204 8.3588 11.436L22.872 6.59826C24.5278 6.04633 25.3557 5.77036 25.7927 6.20738C26.2297 6.6444 25.9537 7.47229 25.4018 9.12808L20.5641 23.6412C19.7797 25.9945 19.3875 27.1711 18.6667 27.1711C17.9459 27.1711 17.5537 25.9945 16.7693 23.6412L15.0203 18.394L20.7071 12.7071C21.0977 12.3166 21.0977 11.6834 20.7071 11.2929C20.3166 10.9024 19.6835 10.9024 19.2929 11.2929L13.606 16.9798Z" fill="#1B55AC"/>
</svg>
