<svg width="28" height="28" viewBox="0 0 28 28" fill="none" xmlns="http://www.w3.org/2000/svg">
<path fill-rule="evenodd" clip-rule="evenodd" d="M14.1667 2.33334V8.50001L14.1667 8.55442C14.1666 8.97849 14.1665 9.39062 14.2122 9.73053C14.2637 10.1137 14.3893 10.551 14.7525 10.9142C15.1157 11.2774 15.553 11.403 15.9362 11.4545C16.2761 11.5002 16.6882 11.5001 17.1123 11.5H17.1123L17.1667 11.5H23.3334V18.6667C23.3334 21.9665 23.3334 23.6164 22.3082 24.6416C21.2831 25.6667 19.6332 25.6667 16.3334 25.6667H11.6667C8.36686 25.6667 6.71694 25.6667 5.69181 24.6416C4.66669 23.6164 4.66669 21.9665 4.66669 18.6667V9.33334C4.66669 6.03351 4.66669 4.3836 5.69181 3.35847C6.71694 2.33334 8.36686 2.33334 11.6667 2.33334H14.1667ZM16.1667 2.33566V8.50001C16.1667 8.99969 16.1688 9.27384 16.1944 9.46404L16.1954 9.47132L16.2027 9.47232C16.3929 9.49789 16.667 9.50001 17.1667 9.50001H23.331C23.3235 8.92415 23.2916 8.56814 23.1557 8.24025C22.9781 7.81145 22.6409 7.47425 21.9665 6.79984L18.8669 3.70018C18.1925 3.02577 17.8553 2.68857 17.4265 2.51096C17.0986 2.37514 16.7425 2.34318 16.1667 2.33566Z" fill="#5D6E7F"/>
</svg>
