<svg width="27" height="25" viewBox="0 0 27 25" fill="none" xmlns="http://www.w3.org/2000/svg">
<path d="M6.67962 4.63617L8.60868 2.70711C8.99921 2.31658 9.63237 2.31658 10.0229 2.70711L13.6613 6.34552C14.0518 6.73605 14.0518 7.36921 13.6613 7.75974L11.2111 10.2099C10.8336 10.5875 10.74 11.1642 10.9788 11.6418C12.3591 14.4024 14.5976 16.6409 17.3582 18.0212C17.8358 18.26 18.4125 18.1664 18.7901 17.7889L21.2403 15.3387C21.6308 14.9482 22.264 14.9482 22.6545 15.3387L26.2929 18.9771C26.6834 19.3676 26.6834 20.0008 26.2929 20.3913L24.3638 22.3204C22.2525 24.4317 18.9099 24.6693 16.5212 22.8777L13.2075 20.3925C11.464 19.0848 9.91517 17.536 8.60752 15.7925L6.12226 12.4788C4.33072 10.0901 4.56827 6.74752 6.67962 4.63617Z" fill="#1B55AC"/>
</svg>
