<svg width="28" height="28" viewBox="0 0 28 28" fill="none" xmlns="http://www.w3.org/2000/svg">
<path fill-rule="evenodd" clip-rule="evenodd" d="M3.50489 3.5049C2.33331 4.67647 2.33331 6.56209 2.33331 10.3333V17.6667C2.33331 21.4379 2.33331 23.3235 3.50489 24.4951C4.67646 25.6667 6.56208 25.6667 10.3333 25.6667H17.6666C21.4379 25.6667 23.3235 25.6667 24.4951 24.4951C25.6666 23.3235 25.6666 21.4379 25.6666 17.6666V10.3333C25.6666 7.34428 25.6666 5.53978 25.0833 4.33649V19.8333C24.9918 19.8333 24.946 19.8333 24.9019 19.8323C23.9023 19.8103 22.9473 19.4147 22.2249 18.7235C22.193 18.693 22.1606 18.6606 22.0959 18.5959L21.2189 17.7189C20.1519 16.6519 19.6184 16.1185 18.9722 16.0186C18.7697 15.9873 18.5636 15.9873 18.3611 16.0186C17.7148 16.1185 17.1814 16.6519 16.1144 17.7189L15.9824 17.8509L15.9824 17.8509L15.9823 17.851C15.1362 18.6971 14.7131 19.1202 14.2466 19.0777C14.1805 19.0717 14.1152 19.0591 14.0516 19.0401C13.6027 18.9063 13.367 18.3564 12.8956 17.2565L12.8273 17.0971L12.8273 17.0971C11.7728 14.6367 11.2456 13.4065 10.2036 13.2058C9.16152 13.0051 8.21511 13.9515 6.3223 15.8443L4.08331 18.0833V3.05338C3.87186 3.18022 3.68036 3.32942 3.50489 3.5049Z" fill="#5D6E7F"/>
<path d="M3.33331 10.3333C3.33331 8.41946 3.33544 7.08464 3.47084 6.07751C3.60238 5.09914 3.84298 4.58104 4.21199 4.21202C4.58101 3.84301 5.09911 3.60241 6.07747 3.47087C7.08461 3.33547 8.41943 3.33334 10.3333 3.33334H17.6666C19.5805 3.33334 20.9153 3.33547 21.9225 3.47087C22.9009 3.60241 23.4189 3.84301 23.788 4.21202C24.157 4.58104 24.3976 5.09914 24.5291 6.0775C24.6645 7.08464 24.6666 8.41946 24.6666 10.3333V17.6667C24.6666 19.5806 24.6645 20.9154 24.5291 21.9225C24.3976 22.9009 24.157 23.419 23.788 23.788C23.4189 24.157 22.9009 24.3976 21.9225 24.5291C20.9154 24.6646 19.5805 24.6667 17.6666 24.6667H10.3333C8.41943 24.6667 7.08461 24.6646 6.07747 24.5291C5.09911 24.3976 4.58101 24.157 4.21199 23.788C3.84298 23.419 3.60238 22.9009 3.47084 21.9225C3.33544 20.9154 3.33331 19.5806 3.33331 17.6667V10.3333Z" stroke="#5D6E7F" stroke-width="2"/>
<circle cx="17.5" cy="10.5" r="2.33333" fill="#5D6E7F"/>
</svg>
